<?xml version="1.0" encoding="utf-8"?><svg viewBox="0 0 512 512" xmlns="http://www.w3.org/2000/svg" xmlns:xlink="http://www.w3.org/1999/xlink"><style>:root>svg{display:none}:root>svg:target{display:block}</style><svg viewBox="0 0 24 25" id="chevron" xmlns="http://www.w3.org/2000/svg"><path fill-rule="evenodd" clip-rule="evenodd" d="M15.707 5.793a1 1 0 010 1.414L10.414 12.5l5.293 5.293a1 1 0 01-1.414 1.414l-6-6a1 1 0 010-1.414l6-6a1 1 0 011.414 0z"/></svg><svg viewBox="0 0 32 32" id="close" xmlns="http://www.w3.org/2000/svg"><path d="M5 27L27 5M5 5l22 22"/></svg><svg fill="none" viewBox="0 0 25 25" id="copy" xmlns="http://www.w3.org/2000/svg"><path d="M20.494 9.387h-9a2 2 0 00-2 2v9a2 2 0 002 2h9a2 2 0 002-2v-9a2 2 0 00-2-2z"/><path d="M5.494 15.387h-1a2 2 0 01-2-2v-9a2 2 0 012-2h9a2 2 0 012 2v1"/></svg><svg viewBox="0 0 12 23" id="facebook" xmlns="http://www.w3.org/2000/svg"><path d="M9.78 3.801h2.188L12 0H8.38C5.496.172 3.539 2.075 3.539 5.404v3.013H0v4.07h3.539V23h4.214V12.487h4.054V8.385H7.753V5.788c0-1.185.322-1.987 2.027-1.987z"/></svg><svg viewBox="0 0 81 16" id="left-arrow" xmlns="http://www.w3.org/2000/svg"><path d="M.293 7.293a1 1 0 000 1.414l6.364 6.364a1 1 0 001.414-1.414L2.414 8l5.657-5.657A1 1 0 006.657.93L.293 7.293zM81 7H1v2h80V7z"/></svg><svg viewBox="0 0 512 512" id="link" xmlns="http://www.w3.org/2000/svg"><path d="M476.853 35.148c-46.864-46.864-122.842-46.864-169.706-.001L206.853 135.441c-48.475 48.477-43.987 125.717 0 169.706 7.366 7.366 15.516 13.372 24.122 18.305l18.305-18.305c12.006-12.008 7.78-26.045 7.564-36.174-2.635-1.868-5.198-3.887-7.564-6.253-22.573-22.571-23.588-61.265 0-84.853L349.572 77.575c23.399-23.399 61.454-23.399 84.853 0 23.399 23.399 23.399 61.454 0 84.853l-66.293 66.293c1.917 10.607 13.422 35.733 7.504 77.181.289-.284.635-.467.923-.754l100.294-100.294c46.862-46.864 46.862-122.842 0-169.706z"/><path d="M312.918 199.081c-7.365-7.366-15.516-13.372-24.12-18.305l-18.305 18.305c-12.008 12.006-7.782 26.043-7.566 36.172 2.637 1.868 5.2 3.887 7.566 6.253 22.573 22.573 23.588 61.265 0 84.853L162.427 434.425c-23.399 23.399-61.454 23.399-84.853 0-23.399-23.399-23.399-61.454 0-84.853l74.067-74.067c-1.917-10.607-13.423-35.733-7.504-77.181-.289.284-.637.469-.925.756L35.147 307.147c-46.862 46.864-46.862 122.842 0 169.706 46.864 46.862 122.841 46.862 169.705 0l108.066-108.066c47.576-47.576 44.976-124.731 0-169.706z"/></svg><svg fill="none" viewBox="0 0 185 45" id="logo" xmlns="http://www.w3.org/2000/svg"><path d="M19.913 24.973L31.837 7.865v26.05h-4.894V23.377l-7.03 10.13-7.04-10.13v10.54H7.979V7.886l11.934 17.087zM45.996 7.968l12.141 25.948h-5.79l-1.8-3.862H41.44l-1.8 3.862h-5.775L45.996 7.968zm2.441 17.575l-2.426-5.381-2.457 5.381h4.883zM65.556 8l4.422 7.703L74.416 8h5.983l-7.43 12.961 7.43 12.96h-5.983l-4.438-7.734-4.422 7.735h-5.983l7.398-12.96-7.398-12.962h5.983z" fill="#FF0040" fill-opacity=".92"/><path d="M93.168 8.005c-3.728 0-6.672 1.311-8.814 3.976-2.073 2.447-3.053 5.537-3.053 9.3 0 3.765 1.037 6.85 3.11 9.229 2.198 2.556 5.325 3.831 9.332 3.831 1.995.014 3.98-.273 5.89-.85a13.472 13.472 0 004.437-2.307V20.815H93.204v2.52h7.948V29.8a12.069 12.069 0 01-3.194 1.42 14.74 14.74 0 01-3.976.57c-3.303 0-5.786-.995-7.455-2.944-1.563-1.846-2.344-4.366-2.344-7.56 0-3.265.783-5.857 2.411-7.776 1.628-1.918 3.795-2.908 6.563-2.908 2.235 0 4.044.518 5.428 1.633a7.159 7.159 0 012.556 4.402h2.909c-.462-2.769-1.556-4.863-3.334-6.315-1.866-1.57-4.386-2.317-7.548-2.317zM114.563 14.998a5.1 5.1 0 00-3.333 1.172 6.685 6.685 0 00-1.918 2.52v-3.194h-2.805v18.347h2.805v-9.726a6.62 6.62 0 011.43-4.365 4.308 4.308 0 013.629-1.882 9.256 9.256 0 012.733.39v-2.857a6.562 6.562 0 00-2.541-.405zM126.814 14.998c-2.198 0-3.94.425-5.288 1.275a6.292 6.292 0 00-2.82 4.314l2.804.212a3.991 3.991 0 011.846-2.628 5.844 5.844 0 013.303-.814c3.193 0 4.79 1.524 4.79 4.614v.96l-4.402.072c-2.768.036-4.899.57-6.387 1.555a5.185 5.185 0 00-2.519 4.718 4.627 4.627 0 001.705 3.691 6.606 6.606 0 004.376 1.374 9.333 9.333 0 004.578-1.136 8.534 8.534 0 002.804-2.446v3.11h2.665V22.06c0-2.13-.57-3.795-1.633-5.003-1.26-1.384-3.178-2.058-5.822-2.058zm4.614 10.042v1.556c0 1.42-.674 2.695-1.986 3.794a6.94 6.94 0 01-4.614 1.706 4.499 4.499 0 01-2.768-.814 2.531 2.531 0 01-1.037-2.074c0-2.66 2.074-4.012 6.175-4.08l4.23-.088zM145.509 14.998a6.519 6.519 0 00-6.102 3.515v-3.017h-2.66v25.377h2.841V30.505c1.421 2.554 3.444 3.83 6.071 3.83a7.347 7.347 0 006.138-2.908 10.783 10.783 0 002.074-6.708c0-2.769-.71-5.003-2.074-6.776a7.446 7.446 0 00-6.288-2.945zm-.353 2.344a5.073 5.073 0 014.469 2.208c.85 1.275 1.312 3.017 1.312 5.184 0 2.167-.462 3.94-1.385 5.216a5.321 5.321 0 01-4.505 2.073 4.82 4.82 0 01-4.007-1.949c-1.063-1.311-1.556-3.017-1.556-5.148v-.352a8.465 8.465 0 011.385-5.04 4.895 4.895 0 014.287-2.192zM156.168 8.005v25.838h2.841V23.376a6.46 6.46 0 011.42-4.292 4.336 4.336 0 013.515-1.706 4.573 4.573 0 013.552 1.384 5.942 5.942 0 011.208 3.94v11.146h1.514l.082-7.776 1.24-.218v-3.582c0-2.343-.571-4.147-1.706-5.397s-2.805-1.882-4.936-1.882a6.503 6.503 0 00-5.889 3.52V8.005h-2.841z" fill="#fff"/><path d="M0 0h2.784v22.66H0V0z" fill="#000"/><path d="M0 2.758h2.784v22.666H0V2.758zM26.953 0v2.784H4.283V0h22.67z" fill="#fff"/><path d="M22.671 0v2.784H0V0h22.671z" fill="#fff"/><path fill-rule="evenodd" clip-rule="evenodd" d="M168.723 22.88l16.065 15.062h-7.04l1.709 3.964-4.657 2.012-1.695-3.93-4.5 5.012.118-22.12zm1.849 4.3l-.069 12.905 3.163-3.522 2.111 4.894 1.221-.527-2.096-4.86h5.154l-9.484-8.89z" fill="#fff"/></svg><svg fill="none" viewBox="0 0 357 88" id="logo-dark" xmlns="http://www.w3.org/2000/svg"><path d="M38.8 48.46l23-33v50.25h-9.44V45.38L38.8 64.92 25.22 45.38v20.33h-9.44V15.5L38.8 48.46zM89.11 15.66l23.42 50.05h-11.17l-3.47-7.45H80.32l-3.47 7.45H65.71l23.4-50.05zm4.71 33.9l-4.68-10.38-4.74 10.38h9.42zM126.84 15.72l8.53 14.86 8.56-14.86h11.54l-14.33 25 14.33 25h-11.54l-8.56-14.92-8.53 14.92H115.3l14.27-25-14.27-25h11.54z" fill="#000" fill-opacity=".92"/><path d="M180.1 15.73c-7.19 0-12.87 2.53-17 7.67-4 4.72-5.89 10.68-5.89 17.94 0 7.26 2 13.21 6 17.8 4.24 4.93 10.27 7.39 18 7.39a38.334 38.334 0 0011.36-1.64 26.003 26.003 0 008.56-4.45v-20h-20.96v4.86h15.33v12.47a23.272 23.272 0 01-6.16 2.74 28.431 28.431 0 01-7.67 1.1c-6.37 0-11.16-1.92-14.38-5.68-3.013-3.56-4.52-8.42-4.52-14.58 0-6.3 1.51-11.3 4.65-15 3.14-3.7 7.32-5.61 12.66-5.61 4.31 0 7.8 1 10.47 3.15a13.809 13.809 0 014.93 8.49h5.61c-.89-5.34-3-9.38-6.43-12.18-3.6-3.03-8.46-4.47-14.56-4.47zM221.37 29.22a9.841 9.841 0 00-6.43 2.26 12.92 12.92 0 00-3.7 4.86v-6.16h-5.41v35.39h5.41V46.81a12.764 12.764 0 012.76-8.42 8.309 8.309 0 017-3.63 17.843 17.843 0 015.27.75V30a12.65 12.65 0 00-4.9-.78zM245 29.22c-4.24 0-7.6.82-10.2 2.46a12.14 12.14 0 00-5.44 8.32l5.41.41a7.682 7.682 0 013.56-5.07 11.27 11.27 0 016.37-1.57c6.16 0 9.24 2.94 9.24 8.9v1.85l-8.49.14c-5.34.07-9.45 1.1-12.32 3a9.996 9.996 0 00-4.86 9.1 8.927 8.927 0 003.29 7.12 12.738 12.738 0 008.44 2.65 18 18 0 008.83-2.19 16.472 16.472 0 005.41-4.72v6h5.14V42.84c0-4.11-1.1-7.32-3.15-9.65-2.43-2.67-6.13-3.97-11.23-3.97zm8.9 19.37v3c0 2.74-1.3 5.2-3.83 7.32a13.39 13.39 0 01-8.9 3.29 8.68 8.68 0 01-5.34-1.57 4.863 4.863 0 01-2-4c0-5.13 4-7.74 11.91-7.87l8.16-.17zM281.06 29.22A12.572 12.572 0 00269.29 36v-5.82h-5.13v48.95h5.48v-20c2.74 4.926 6.643 7.39 11.71 7.39a14.185 14.185 0 0011.84-5.61 20.796 20.796 0 004-12.94c0-5.34-1.37-9.65-4-13.07a14.353 14.353 0 00-12.13-5.68zm-.68 4.52A9.782 9.782 0 01289 38c1.64 2.46 2.53 5.82 2.53 10s-.89 7.6-2.67 10.06a10.287 10.287 0 01-8.69 4 9.29 9.29 0 01-7.73-3.76c-2.05-2.53-3-5.82-3-9.93v-.68a16.33 16.33 0 012.67-9.72 9.442 9.442 0 018.27-4.23zM301.62 15.73v49.84h5.48V45.38c-.114-3 .859-5.94 2.74-8.28a8.367 8.367 0 016.78-3.29 8.815 8.815 0 016.85 2.67 11.451 11.451 0 012.33 7.6v21.5h2.92l.16-15 2.39-.42v-6.91c0-4.52-1.1-8-3.29-10.41s-5.41-3.63-9.52-3.63A12.544 12.544 0 00307.1 36V15.73h-5.48zM.39.29h5.37V44H.39V.29z" fill="#000"/><path d="M.39 5.61h5.37v43.72H.39V5.61zM52.38.29v5.37H8.65V.29h43.73z" fill="#000"/><path d="M44.12.29v5.37H.39V.29h43.73z" fill="#000"/><path d="M352.26 71.67H340.5l3.67 8.51-5.67 2.45-3.67-8.51-7.39 8.23.18-33.78 24.64 23.1z" stroke="#000" stroke-width="3.61"/></svg><svg fill="none" viewBox="0 0 142 24" id="next-proj" xmlns="http://www.w3.org/2000/svg"><path d="M141.061 13.06a1.501 1.501 0 000-2.12l-9.546-9.547a1.5 1.5 0 00-2.122 2.122L137.879 12l-8.486 8.485a1.501 1.501 0 002.122 2.122l9.546-9.546zM0 13.5h140v-3H0v3z" fill="#000"/></svg><svg viewBox="0 0 81 16" id="right-arrow" xmlns="http://www.w3.org/2000/svg"><path d="M80.707 8.707a1 1 0 000-1.414L74.343.929a1 1 0 10-1.414 1.414L78.586 8l-5.657 5.657a1 1 0 001.414 1.414l6.364-6.364zM0 9h80V7H0v2z"/></svg><svg viewBox="0 0 32 32" id="search" xmlns="http://www.w3.org/2000/svg"><path d="M14.667 25.333c5.89 0 10.666-4.775 10.666-10.666S20.558 4 14.667 4 4 8.776 4 14.667c0 5.89 4.776 10.666 10.667 10.666zM28 28l-5.8-5.8"/></svg><svg viewBox="0 0 32 32" id="toggle-to-dark" xmlns="http://www.w3.org/2000/svg"><path d="M28 17.053A12 12 0 1114.947 4 9.333 9.333 0 0028 17.053z" stroke="#151515" stroke-width="2" stroke-linecap="round" stroke-linejoin="round"/></svg><svg viewBox="0 0 32 32" id="toggle-to-light" xmlns="http://www.w3.org/2000/svg"><path d="M16 22.667a6.667 6.667 0 100-13.334 6.667 6.667 0 000 13.334zM16 1.333V4M16 28v2.667M5.627 5.627L7.52 7.52M24.48 24.48l1.893 1.893M1.333 16H4M28 16h2.667M5.627 26.373L7.52 24.48M24.48 7.52l1.893-1.893" stroke="#fff" stroke-width="2" stroke-linecap="round" stroke-linejoin="round"/></svg><svg viewBox="0 0 25 20" id="twitter" xmlns="http://www.w3.org/2000/svg"><path fill-rule="evenodd" clip-rule="evenodd" d="M22.471 5.714v-.571c.995-.706 1.852-1.546 2.503-2.656a.1.1 0 000-.134c-.034-.034-.103-.067-.137-.034a8.916 8.916 0 01-2.331.706 5.201 5.201 0 001.817-2.52c.034-.034 0-.102-.034-.135a.106.106 0 00-.138 0c-.96.571-2.022.94-3.12 1.176C20.071.571 18.7 0 17.294 0c-2.88 0-5.211 2.286-5.211 5.11 0 .335.034.672.103 1.008A14.48 14.48 0 011.968.975C1.934.94 1.9.94 1.866.94c-.035 0-.069.034-.103.067a4.804 4.804 0 00-.72 2.555c0 1.58.72 3.025 1.954 4a4.785 4.785 0 01-1.817-.571c-.069-.034-.103-.034-.137 0-.035.033-.069.067-.069.1v.068c0 2.252 1.509 4.235 3.669 4.874A5.888 5.888 0 012.929 12c-.035 0-.07 0-.103.034-.035.033-.035.1-.035.134.652 1.983 2.435 3.361 4.526 3.53a10.236 10.236 0 01-5.966 1.915c-.411 0-.823-.033-1.2-.067-.068-.033-.103 0-.137.067-.034.034 0 .101.034.135A14.775 14.775 0 007.9 20c9.12 0 14.571-7.26 14.571-14.286z"/></svg><svg viewBox="0 0 32 18" id="vk" xmlns="http://www.w3.org/2000/svg"><path d="M28.143 12.042c-.215-.201-.431-.402-.645-.605-.976-.923-1.023-1.476-.186-2.583.47-.672.968-1.316 1.463-1.955.388-.5.773-.997 1.14-1.503.791-1.061 1.581-2.168 2-3.46.232-.83 0-1.198-.837-1.336-.186-.047-.325-.047-.465-.047h-5.068c-.65 0-.976.277-1.209.83a45.75 45.75 0 00-.315.738 23.13 23.13 0 01-.661 1.476c-.837 1.614-1.72 3.182-2.976 4.52l-.055.055c-.267.267-.58.58-1.014.452-.604-.185-.744-1.153-.744-1.476v-5.81C18.478.507 18.292.183 17.455 0h-5.254c-.697 0-1.069.277-1.44.692-.187.276-.28.415.185.507.883.184 1.348.738 1.488 1.66.232 1.384.232 2.767.093 4.15-.047.416-.14.83-.28 1.2-.278.6-.65.737-1.208.369-.465-.37-.837-.83-1.162-1.292C8.62 5.534 7.645 3.597 6.808 1.614c-.232-.553-.65-.922-1.255-.922a75.05 75.05 0 00-4.557 0c-.93.046-1.209.46-.837 1.291 1.674 3.643 3.487 7.194 5.905 10.422 1.209 1.66 2.65 3.09 4.464 4.15 2.045 1.2 4.277 1.522 6.648 1.43 1.116-.046 1.442-.323 1.488-1.43.047-.737.14-1.475.511-2.167.326-.646.884-.784 1.535-.369.325.185.604.461.837.738.604.692 1.209 1.384 1.86 2.03.836.83 1.766 1.29 2.975 1.198h4.65c.743-.046 1.115-.968.697-1.798-.279-.6-.697-1.107-1.116-1.614-.744-.923-1.607-1.727-2.47-2.531z"/></svg></svg>